<svg width="811" height="421" viewBox="0 0 811 421" fill="none" xmlns="http://www.w3.org/2000/svg">
<path d="M537.498 109.386L518.913 170.006C534.216 172.059 549.2 162.813 553.874 147.566C558.549 132.319 551.322 116.262 537.498 109.386Z" fill="#E74424"/>
<path d="M492.42 128.725C487.827 143.708 494.728 159.474 508.087 166.54L526.589 106.187C511.565 104.553 497.014 113.741 492.42 128.725Z" fill="#E74424"/>
<path d="M508.687 166.29L526.945 106.733C528.77 106.955 530.601 107.338 532.421 107.896C533.978 108.374 535.47 108.963 536.894 109.648L518.56 169.452C516.997 169.222 515.431 168.872 513.873 168.395C512.054 167.837 510.323 167.129 508.687 166.29Z" fill="#DED2B9" stroke="#E74424"/>
<path d="M127.296 195.648C129.216 195.648 131.424 196.032 133.92 196.8C136.608 197.376 139.008 198.24 141.12 199.392C143.232 200.352 144.96 201.408 146.304 202.56C147.84 203.712 148.608 204.768 148.608 205.728C144.768 213.792 141.216 221.952 137.952 230.208C134.688 238.272 131.904 246.048 129.6 253.536C127.296 261.024 125.472 268.032 124.128 274.56C122.976 281.088 122.4 286.752 122.4 291.552C122.4 296.928 122.976 301.44 124.128 305.088C125.28 308.544 127.2 311.04 129.888 312.576C127.584 314.112 124.608 315.36 120.96 316.32C117.312 317.28 114.048 317.76 111.168 317.76C100.8 317.76 95.616 310.656 95.616 296.448C95.616 285.504 99.264 270.528 106.56 251.52C102.72 260.352 98.304 268.704 93.312 276.576C88.32 284.256 83.232 291.072 78.048 297.024C72.864 302.976 67.584 307.872 62.208 311.712C57.024 315.36 52.224 317.568 47.808 318.336C40.704 317.952 34.944 314.592 30.528 308.256C26.112 301.728 23.904 293.472 23.904 283.488C23.904 272.736 26.208 261.408 30.816 249.504C35.424 237.6 41.28 226.56 48.384 216.384C55.68 206.208 63.552 197.76 72 191.04C80.448 184.128 88.608 180.48 96.48 180.096C98.4 180.672 100.512 181.824 102.816 183.552C105.312 185.28 107.616 187.296 109.728 189.6C112.032 191.904 113.952 194.304 115.488 196.8C117.024 199.104 117.888 201.12 118.08 202.848C110.4 204 102.432 207.744 94.176 214.08C86.112 220.416 78.72 228.096 72 237.12C65.472 245.952 60.096 255.456 55.872 265.632C51.648 275.808 49.536 285.312 49.536 294.144C49.536 297.792 50.88 300.096 53.568 301.056C59.136 299.904 65.568 295.2 72.864 286.944C80.16 278.496 88.992 265.536 99.36 248.064C101.28 244.608 103.392 240.768 105.696 236.544C108.192 232.32 110.688 227.904 113.184 223.296C115.68 218.688 118.08 214.08 120.384 209.472C122.88 204.672 125.184 200.064 127.296 195.648ZM162.929 293.568C162.929 285.12 164.945 273.312 168.977 258.144C173.009 242.784 178.673 224.928 185.969 204.576C197.873 172.128 209.009 145.152 219.377 123.648C229.937 101.952 240.209 85.056 250.193 72.96C252.497 73.344 255.281 74.304 258.545 75.84C262.001 77.376 265.361 79.104 268.625 81.024C271.889 82.752 274.769 84.576 277.265 86.496C279.953 88.416 281.681 89.952 282.449 91.104C267.473 108.768 254.321 127.776 242.993 148.128C231.665 168.48 221.297 191.808 211.889 218.112C203.825 240.768 197.681 261.216 193.457 279.456C189.233 297.504 187.121 312.576 187.121 324.672C187.121 327.936 187.121 329.952 187.121 330.72C187.121 331.488 187.217 332.256 187.409 333.024C184.721 332.64 182.417 331.968 180.497 331.008C178.577 330.048 177.329 328.896 176.753 327.552C176.369 326.592 175.313 325.152 173.585 323.232C171.857 321.504 170.321 320.16 168.977 319.2C167.249 318.048 165.809 315.072 164.657 310.272C163.505 305.28 162.929 299.712 162.929 293.568ZM248.272 201.696C247.312 200.544 246.448 198.144 245.68 194.496C244.912 190.656 244.528 187.392 244.528 184.704C249.52 185.088 254.32 185.472 258.928 185.856C263.536 186.048 267.76 186.24 271.6 186.432C274.48 180.672 277.552 175.008 280.816 169.44C284.272 163.68 287.536 158.496 290.608 153.888C293.872 149.088 296.848 145.056 299.536 141.792C302.416 138.528 304.624 136.416 306.16 135.456C308.08 135.456 310.48 135.84 313.36 136.608C316.432 137.184 319.504 138.048 322.576 139.2C325.648 140.16 328.432 141.216 330.928 142.368C333.424 143.52 335.152 144.672 336.112 145.824C330.352 153.12 325.36 159.936 321.136 166.272C317.104 172.416 312.688 179.52 307.888 187.584C311.728 187.584 315.568 187.488 319.408 187.296C323.44 187.104 327.472 186.816 331.504 186.432C332.464 187.392 333.232 188.64 333.808 190.176C334.384 191.52 334.672 192.96 334.672 194.496C325.264 197.952 313.84 199.872 300.4 200.256C295.6 209.472 291.28 218.688 287.44 227.904C283.792 236.928 280.624 245.664 277.936 254.112C275.44 262.56 273.424 270.528 271.888 278.016C270.544 285.504 269.872 292.224 269.872 298.176C269.872 306.624 273.04 311.328 279.376 312.288C285.136 311.52 290.608 310.08 295.792 307.968C300.976 305.856 305.584 303.168 309.616 299.904C310.768 301.632 311.44 303.072 311.632 304.224C310.48 305.952 308.464 307.968 305.584 310.272C302.896 312.576 299.92 314.784 296.656 316.896C293.392 319.2 290.224 321.12 287.152 322.656C284.08 324.192 281.776 325.056 280.24 325.248C275.44 325.056 270.64 324 265.84 322.08C261.04 320.16 256.624 317.76 252.592 314.88C248.752 312 245.584 308.832 243.088 305.376C240.592 301.728 239.344 298.176 239.344 294.72C239.344 290.112 239.92 284.352 241.072 277.44C242.416 270.336 244.24 262.656 246.544 254.4C248.848 246.144 251.536 237.504 254.608 228.48C257.68 219.456 261.04 210.528 264.688 201.696H248.272ZM325.618 306.24C326.578 300.672 328.21 293.376 330.514 284.352C333.01 275.136 335.89 265.44 339.154 255.264C342.418 244.896 345.874 234.528 349.522 224.16C353.17 213.792 356.722 204.48 360.178 196.224C362.674 190.272 364.882 185.664 366.802 182.4C368.722 178.944 370.834 176.064 373.138 173.76C375.826 174.144 378.61 174.816 381.49 175.776C384.37 176.736 387.154 177.888 389.842 179.232C392.53 180.576 394.93 182.016 397.042 183.552C399.154 184.896 400.786 186.24 401.938 187.584C396.754 193.728 392.146 200.736 388.114 208.608C384.274 216.48 380.338 226.56 376.306 238.848C386.674 229.632 395.794 220.8 403.666 212.352C411.73 203.904 419.218 194.496 426.13 184.128C427.282 183.168 429.298 182.688 432.178 182.688C434.866 182.688 437.458 183.168 439.954 184.128C442.45 184.896 444.178 186.048 445.138 187.584C441.682 196.8 439.954 205.92 439.954 214.944C439.954 223.392 441.202 229.728 443.698 233.952C443.506 235.104 442.162 237.312 439.666 240.576C437.362 243.84 434.77 246.912 431.89 249.792C426.706 247.104 422.098 243.456 418.066 238.848C414.034 234.048 411.058 228.864 409.138 223.296C400.114 229.632 392.434 235.872 386.098 242.016C379.762 247.968 374.29 254.688 369.682 262.176C365.266 269.472 361.426 277.92 358.162 287.52C355.09 297.12 352.114 308.544 349.234 321.792C347.506 321.6 345.394 320.928 342.898 319.776C340.594 318.816 338.194 317.568 335.698 316.032C333.394 314.496 331.282 312.864 329.362 311.136C327.442 309.408 326.194 307.776 325.618 306.24Z" fill="black"/>
<path d="M645.736 187.803L617.16 210.123L594.839 181.546C587.072 171.603 572.721 169.839 562.778 177.605L552.38 185.727L550.741 187.007C540.8 194.772 539.032 209.126 546.798 219.07L569.119 247.647L540.541 269.969C530.606 277.729 528.839 292.086 536.603 302.025L546.007 314.065C553.771 324.006 568.127 325.766 578.062 318.006L606.641 295.683L628.962 324.261C636.729 334.204 651.087 335.969 661.028 328.204L662.668 326.923L673.065 318.802C683.009 311.035 684.769 296.681 677.003 286.737L654.681 258.16L683.257 235.839C693.202 228.071 694.967 213.72 687.202 203.779L677.798 191.739C670.034 181.801 655.681 180.035 645.736 187.803ZM633.283 231.998C637.361 239.456 635.27 253.052 633.583 264.002C633.583 264.002 632.899 269.666 632.584 271.227C632.349 272.401 631.76 274.853 630.077 276.168C628.391 277.484 625.873 277.46 624.674 277.406C623.083 277.333 617.421 276.626 617.421 276.626C606.388 275.611 592.694 274.35 586.442 268.585C582.03 264.505 579.763 260.071 579.707 255.403C579.649 250.691 581.756 246.332 586.15 242.073C586.578 241.664 586.978 241.317 587.399 240.988C590.786 238.342 595.197 236.929 599.489 237.013C600.451 232.825 602.886 228.891 606.28 226.24C606.697 225.914 607.135 225.607 607.632 225.294C612.827 222.062 617.565 221.076 622.125 222.271C626.641 223.455 630.393 226.729 633.283 231.998Z" fill="#E74424"/>
<rect x="575" y="211" width="75" height="71" fill="#E74424"/>
<path d="M627.717 227.714C627.126 227.587 626.584 227.498 626.043 227.438C621.644 226.948 617.028 228.089 613.311 230.477C610.216 227.33 605.96 225.2 601.57 224.711C601.024 224.65 600.48 224.618 599.871 224.611C593.583 224.584 588.901 226.274 585.558 229.779C582.245 233.25 580.726 238.138 581.037 244.306C581.49 253.036 590.649 263.802 598.028 272.475C598.028 272.475 601.682 277.063 602.799 278.26C603.641 279.161 605.475 280.989 607.66 281.232C609.841 281.475 612.036 280.096 613.052 279.402C614.404 278.481 618.978 274.81 618.978 274.81C628.085 267.974 639.392 259.484 641.753 251.072C643.414 245.123 643.009 240.021 640.54 235.905C638.048 231.751 633.857 229.072 627.717 227.714Z" fill="#F7F1E6"/>
<path d="M458.632 288.597C465.923 241.04 476.757 181.437 499.98 182.004C523.203 182.571 530 203.549 530 203.549C502.877 240.909 497.714 258.547 485.82 301.638C485.82 301.638 485.111 321.159 479.589 323.75C474.067 326.34 454.232 308.403 458.632 288.597Z" fill="black" stroke="black"/>
</svg>
